{
  "asset": {
    "version": "2.0",
    "generator": "babylon.js glTF exporter for 3dsmax 2023 v20220505.2"
  },
  "scene": 0,
  "scenes": [
    {
      "nodes": [
        0
      ]
    }
  ],
  "nodes": [
    {
      "mesh": 0,
      "translation": [
        -18.3349972,
        1.21,
        22.95
      ],
      "rotation": [
        -0.5018187,
        -0.49817878,
        0.498174638,
        0.5018147
      ],
      "scale": [
        0.99999994,
        1.0,
        0.99999994
      ],
      "name": "Box5855"
    }
  ],
  "meshes": [
    {
      "primitives": [
        {
          "attributes": {
            "POSITION": 1,
            "NORMAL": 2,
            "TEXCOORD_0": 3
          },
          "indices": 0,
          "material": 0
        }
      ],
      "name": "Box5855"
    }
  ],
  "accessors": [
    {
      "bufferView": 0,
      "componentType": 5123,
      "count": 9768,
      "type": "SCALAR",
      "name": "accessorIndices"
    },
    {
      "bufferView": 1,
      "componentType": 5126,
      "count": 5768,
      "max": [
        2.07916713,
        1.04999983,
        0.365722626
      ],
      "min": [
        -0.912633359,
        -3.15000272,
        -8.141408
      ],
      "type": "VEC3",
      "name": "accessorPositions"
    },
    {
      "bufferView": 1,
      "byteOffset": 69216,
      "componentType": 5126,
      "count": 5768,
      "type": "VEC3",
      "name": "accessorNormals"
    },
    {
      "bufferView": 2,
      "componentType": 5126,
      "count": 5768,
      "type": "VEC2",
      "name": "accessorUVs"
    }
  ],
  "bufferViews": [
    {
      "buffer": 0,
      "byteLength": 19536,
      "name": "bufferViewScalar"
    },
    {
      "buffer": 0,
      "byteOffset": 19536,
      "byteLength": 138432,
      "byteStride": 12,
      "name": "bufferViewFloatVec3"
    },
    {
      "buffer": 0,
      "byteOffset": 157968,
      "byteLength": 46144,
      "byteStride": 8,
      "name": "bufferViewFloatVec2"
    }
  ],
  "buffers": [
    {
      "uri": "1860_Kitchen_Cabinets_Espresso.bin",
      "byteLength": 204112
    }
  ],
  "materials": [
    {
      "pbrMetallicRoughness": {
        "baseColorTexture": {
          "index": 0
        },
        "metallicFactor": 0.0,
        "roughnessFactor": 0.5
      },
      "doubleSided": true,
      "name": "Wood Espresso",
      "extras": {
        "babylonSeparateCullingPass": false
      }
    }
  ],
  "textures": [
    {
      "sampler": 0,
      "source": 0,
      "name": "Wood_Wenge_1K_albedo_espresso3.jpg"
    }
  ],
  "images": [
    {
      "uri": "Textures/Wood_Wenge_1K_albedo_espresso3.jpg"
    }
  ],
  "samplers": [
    {
      "magFilter": 9729,
      "minFilter": 9987
    }
  ]
}