{
  "asset": {
    "version": "2.0",
    "generator": "babylon.js glTF exporter for 3dsmax 2023 v20220505.2"
  },
  "scene": 0,
  "scenes": [
    {
      "nodes": [
        0
      ]
    }
  ],
  "nodes": [
    {
      "mesh": 0,
      "translation": [
        -18.3349972,
        1.21,
        22.95
      ],
      "rotation": [
        -0.5018187,
        -0.49817878,
        0.498174638,
        0.5018147
      ],
      "scale": [
        0.99999994,
        1.0,
        0.99999994
      ],
      "name": "Box8617"
    }
  ],
  "meshes": [
    {
      "primitives": [
        {
          "attributes": {
            "POSITION": 1,
            "NORMAL": 2,
            "TEXCOORD_0": 3
          },
          "indices": 0,
          "material": 0
        }
      ],
      "name": "Box8617"
    }
  ],
  "accessors": [
    {
      "bufferView": 0,
      "componentType": 5123,
      "count": 4404,
      "type": "SCALAR",
      "name": "accessorIndices"
    },
    {
      "bufferView": 1,
      "componentType": 5126,
      "count": 2870,
      "max": [
        2.03778648,
        7.856242,
        10.6799431
      ],
      "min": [
        -1.02871215,
        -9.30323,
        5.85771
      ],
      "type": "VEC3",
      "name": "accessorPositions"
    },
    {
      "bufferView": 1,
      "byteOffset": 34440,
      "componentType": 5126,
      "count": 2870,
      "type": "VEC3",
      "name": "accessorNormals"
    },
    {
      "bufferView": 2,
      "componentType": 5126,
      "count": 2870,
      "type": "VEC2",
      "name": "accessorUVs"
    }
  ],
  "bufferViews": [
    {
      "buffer": 0,
      "byteLength": 8808,
      "name": "bufferViewScalar"
    },
    {
      "buffer": 0,
      "byteOffset": 8808,
      "byteLength": 68880,
      "byteStride": 12,
      "name": "bufferViewFloatVec3"
    },
    {
      "buffer": 0,
      "byteOffset": 77688,
      "byteLength": 22960,
      "byteStride": 8,
      "name": "bufferViewFloatVec2"
    }
  ],
  "buffers": [
    {
      "uri": "1860_Bathroom_Cabinets_Linen.bin",
      "byteLength": 100648
    }
  ],
  "materials": [
    {
      "pbrMetallicRoughness": {
        "baseColorTexture": {
          "index": 0
        },
        "metallicFactor": 0.0,
        "metallicRoughnessTexture": {
          "index": 1
        }
      },
      "doubleSided": true,
      "name": "Wood White Linen",
      "extras": {
        "babylonSeparateCullingPass": false
      }
    }
  ],
  "textures": [
    {
      "sampler": 0,
      "source": 0,
      "name": "Wood023_DCL_Color3.jpg"
    },
    {
      "sampler": 0,
      "source": 1,
      "name": "Wood023_1K_Roughness0.jpg"
    }
  ],
  "images": [
    {
      "uri": "Textures/Wood023_DCL_Color3.jpg"
    },
    {
      "uri": "Textures/Wood023_1K_Roughness0.jpg"
    }
  ],
  "samplers": [
    {
      "magFilter": 9729,
      "minFilter": 9987
    }
  ]
}