{
    "asset" : {
        "generator" : "Khronos glTF Blender I/O v3.3.27",
        "version" : "2.0"
    },
    "scene" : 0,
    "scenes" : [
        {
            "name" : "Scene",
            "nodes" : [
                0
            ]
        }
    ],
    "nodes" : [
        {
            "mesh" : 0,
            "name" : "Dianna Satin Brass",
            "rotation" : [
                -0.7071068286895752,
                0,
                0,
                0.7071067094802856
            ],
            "scale" : [
                1.921563982963562,
                4.666512489318848,
                1.6497963666915894
            ],
            "translation" : [
                -32.67930221557617,
                3.9447104930877686,
                19.9982967376709
            ]
        }
    ],
    "materials" : [
        {
            "doubleSided" : true,
            "name" : "Lamp_material_bronze",
            "pbrMetallicRoughness" : {
                "baseColorFactor" : [
                    0.5237847566604614,
                    0.44751185178756714,
                    0.31772446632385254,
                    1
                ],
                "roughnessFactor" : 0.5
            }
        },
        {
            "doubleSided" : true,
            "name" : "Lamp_white_plaqstic",
            "pbrMetallicRoughness" : {
                "baseColorFactor" : [
                    0.800000011920929,
                    0.800000011920929,
                    0.800000011920929,
                    1
                ],
                "metallicFactor" : 0
            }
        },
        {
            "alphaMode" : "BLEND",
            "doubleSided" : true,
            "name" : "Lightball",
            "pbrMetallicRoughness" : {
                "baseColorFactor" : [
                    0.4019657075405121,
                    0.4019657075405121,
                    0.4019657075405121,
                    1
                ],
                "metallicFactor" : 0,
                "roughnessFactor" : 0.5
            }
        }
    ],
    "meshes" : [
        {
            "name" : "Torus",
            "primitives" : [
                {
                    "attributes" : {
                        "POSITION" : 0,
                        "NORMAL" : 1,
                        "TEXCOORD_0" : 2
                    },
                    "indices" : 3,
                    "material" : 0
                },
                {
                    "attributes" : {
                        "POSITION" : 4,
                        "NORMAL" : 5,
                        "TEXCOORD_0" : 6
                    },
                    "indices" : 7,
                    "material" : 1
                },
                {
                    "attributes" : {
                        "POSITION" : 8,
                        "NORMAL" : 9,
                        "TEXCOORD_0" : 10
                    },
                    "indices" : 11,
                    "material" : 2
                }
            ]
        }
    ],
    "accessors" : [
        {
            "bufferView" : 0,
            "componentType" : 5126,
            "count" : 18731,
            "max" : [
                1.375132441520691,
                0.039611104875802994,
                0.034412987530231476
            ],
            "min" : [
                -0.09857204556465149,
                -0.041408687829971313,
                -0.5312017202377319
            ],
            "type" : "VEC3"
        },
        {
            "bufferView" : 1,
            "componentType" : 5126,
            "count" : 18731,
            "type" : "VEC3"
        },
        {
            "bufferView" : 2,
            "componentType" : 5126,
            "count" : 18731,
            "type" : "VEC2"
        },
        {
            "bufferView" : 3,
            "componentType" : 5123,
            "count" : 60066,
            "type" : "SCALAR"
        },
        {
            "bufferView" : 4,
            "componentType" : 5126,
            "count" : 663,
            "max" : [
                1.284649133682251,
                0.015166045166552067,
                -0.4328759014606476
            ],
            "min" : [
                -0.007869258522987366,
                -0.01625015400350094,
                -0.4845711886882782
            ],
            "type" : "VEC3"
        },
        {
            "bufferView" : 5,
            "componentType" : 5126,
            "count" : 663,
            "type" : "VEC3"
        },
        {
            "bufferView" : 6,
            "componentType" : 5126,
            "count" : 663,
            "type" : "VEC2"
        },
        {
            "bufferView" : 7,
            "componentType" : 5123,
            "count" : 1260,
            "type" : "SCALAR"
        },
        {
            "bufferView" : 8,
            "componentType" : 5126,
            "count" : 2760,
            "max" : [
                1.2846527099609375,
                0.015078535303473473,
                -0.3951874375343323
            ],
            "min" : [
                -0.007797152269631624,
                -0.01619916409254074,
                -0.4380113482475281
            ],
            "type" : "VEC3"
        },
        {
            "bufferView" : 9,
            "componentType" : 5126,
            "count" : 2760,
            "type" : "VEC3"
        },
        {
            "bufferView" : 10,
            "componentType" : 5126,
            "count" : 2760,
            "type" : "VEC2"
        },
        {
            "bufferView" : 11,
            "componentType" : 5123,
            "count" : 12960,
            "type" : "SCALAR"
        }
    ],
    "bufferViews" : [
        {
            "buffer" : 0,
            "byteLength" : 224772,
            "byteOffset" : 0,
            "target" : 34962
        },
        {
            "buffer" : 0,
            "byteLength" : 224772,
            "byteOffset" : 224772,
            "target" : 34962
        },
        {
            "buffer" : 0,
            "byteLength" : 149848,
            "byteOffset" : 449544,
            "target" : 34962
        },
        {
            "buffer" : 0,
            "byteLength" : 120132,
            "byteOffset" : 599392,
            "target" : 34963
        },
        {
            "buffer" : 0,
            "byteLength" : 7956,
            "byteOffset" : 719524,
            "target" : 34962
        },
        {
            "buffer" : 0,
            "byteLength" : 7956,
            "byteOffset" : 727480,
            "target" : 34962
        },
        {
            "buffer" : 0,
            "byteLength" : 5304,
            "byteOffset" : 735436,
            "target" : 34962
        },
        {
            "buffer" : 0,
            "byteLength" : 2520,
            "byteOffset" : 740740,
            "target" : 34963
        },
        {
            "buffer" : 0,
            "byteLength" : 33120,
            "byteOffset" : 743260,
            "target" : 34962
        },
        {
            "buffer" : 0,
            "byteLength" : 33120,
            "byteOffset" : 776380,
            "target" : 34962
        },
        {
            "buffer" : 0,
            "byteLength" : 22080,
            "byteOffset" : 809500,
            "target" : 34962
        },
        {
            "buffer" : 0,
            "byteLength" : 25920,
            "byteOffset" : 831580,
            "target" : 34963
        }
    ],
    "buffers" : [
        {
            "byteLength" : 857500,
            "uri" : "1989_kitchen_Light_DiannaSatinBrass.bin"
        }
    ]
}
