{
  "asset": {
    "version": "2.0",
    "generator": "babylon.js glTF exporter for 3dsmax 2023 v20220505.2"
  },
  "scene": 0,
  "scenes": [
    {
      "nodes": [
        0
      ]
    }
  ],
  "nodes": [
    {
      "mesh": 0,
      "translation": [
        -17.3030071,
        1.02999854,
        27.6249981
      ],
      "rotation": [
        0.5,
        -0.5,
        0.50000006,
        0.49999994
      ],
      "name": "Box7908"
    }
  ],
  "meshes": [
    {
      "primitives": [
        {
          "attributes": {
            "POSITION": 1,
            "NORMAL": 2,
            "TEXCOORD_0": 3
          },
          "indices": 0,
          "material": 0
        }
      ],
      "name": "Box7908"
    }
  ],
  "accessors": [
    {
      "bufferView": 0,
      "componentType": 5123,
      "count": 3024,
      "type": "SCALAR",
      "name": "accessorIndices"
    },
    {
      "bufferView": 1,
      "componentType": 5126,
      "count": 1941,
      "max": [
        1.73323452,
        16.0995045,
        0.7999988
      ],
      "min": [
        -12.9750042,
        -0.900002,
        -0.300004363
      ],
      "type": "VEC3",
      "name": "accessorPositions"
    },
    {
      "bufferView": 1,
      "byteOffset": 23292,
      "componentType": 5126,
      "count": 1941,
      "type": "VEC3",
      "name": "accessorNormals"
    },
    {
      "bufferView": 2,
      "componentType": 5126,
      "count": 1941,
      "type": "VEC2",
      "name": "accessorUVs"
    }
  ],
  "bufferViews": [
    {
      "buffer": 0,
      "byteLength": 6048,
      "name": "bufferViewScalar"
    },
    {
      "buffer": 0,
      "byteOffset": 6048,
      "byteLength": 46584,
      "byteStride": 12,
      "name": "bufferViewFloatVec3"
    },
    {
      "buffer": 0,
      "byteOffset": 52632,
      "byteLength": 15528,
      "byteStride": 8,
      "name": "bufferViewFloatVec2"
    }
  ],
  "buffers": [
    {
      "uri": "1989_Bathroom_Cabinets_Linen.bin",
      "byteLength": 68160
    }
  ],
  "materials": [
    {
      "pbrMetallicRoughness": {
        "baseColorTexture": {
          "index": 0
        },
        "metallicFactor": 0.0,
        "metallicRoughnessTexture": {
          "index": 1
        }
      },
      "doubleSided": true,
      "name": "Wood White Linen",
      "extras": {
        "babylonSeparateCullingPass": false
      }
    }
  ],
  "textures": [
    {
      "sampler": 0,
      "source": 0,
      "name": "Wood023_DCL_Color3.jpg"
    },
    {
      "sampler": 0,
      "source": 1,
      "name": "Wood023_1K_Roughness0.jpg"
    }
  ],
  "images": [
    {
      "uri": "Textures/Wood023_DCL_Color3.jpg"
    },
    {
      "uri": "Textures/Wood023_1K_Roughness0.jpg"
    }
  ],
  "samplers": [
    {
      "magFilter": 9729,
      "minFilter": 9987
    }
  ]
}