{
  "asset": {
    "version": "2.0",
    "generator": "babylon.js glTF exporter for 3dsmax 2023 v20220505.2"
  },
  "scene": 0,
  "scenes": [
    {
      "nodes": [
        0
      ]
    }
  ],
  "nodes": [
    {
      "children": [
        1
      ],
      "translation": [
        -33.2299919,
        1.99999976,
        15.9999933
      ],
      "rotation": [
        -1.0,
        3.300118E-15,
        7.54979E-08,
        4.371139E-08
      ],
      "scale": [
        1.0,
        -1.0,
        1.0
      ],
      "name": "Cabinet_wall_Double_021"
    },
    {
      "mesh": 0,
      "translation": [
        0.5000005,
        0.0,
        -0.012665893
      ],
      "name": "Line23387"
    }
  ],
  "meshes": [
    {
      "primitives": [
        {
          "attributes": {
            "POSITION": 1,
            "NORMAL": 2,
            "TEXCOORD_0": 3
          },
          "indices": 0,
          "material": 0
        }
      ],
      "name": "Line23387"
    }
  ],
  "accessors": [
    {
      "bufferView": 0,
      "componentType": 5123,
      "count": 14784,
      "type": "SCALAR",
      "name": "accessorIndices"
    },
    {
      "bufferView": 1,
      "componentType": 5126,
      "count": 8816,
      "max": [
        6.130004,
        1.23000026,
        0.312666565
      ],
      "min": [
        -1.50000143,
        -1.70000029,
        -4.88734245
      ],
      "type": "VEC3",
      "name": "accessorPositions"
    },
    {
      "bufferView": 1,
      "byteOffset": 105792,
      "componentType": 5126,
      "count": 8816,
      "type": "VEC3",
      "name": "accessorNormals"
    },
    {
      "bufferView": 2,
      "componentType": 5126,
      "count": 8816,
      "type": "VEC2",
      "name": "accessorUVs"
    }
  ],
  "bufferViews": [
    {
      "buffer": 0,
      "byteLength": 29568,
      "name": "bufferViewScalar"
    },
    {
      "buffer": 0,
      "byteOffset": 29568,
      "byteLength": 211584,
      "byteStride": 12,
      "name": "bufferViewFloatVec3"
    },
    {
      "buffer": 0,
      "byteOffset": 241152,
      "byteLength": 70528,
      "byteStride": 8,
      "name": "bufferViewFloatVec2"
    }
  ],
  "buffers": [
    {
      "uri": "1989_Kitchen_Cabinets_Truffle.bin",
      "byteLength": 311680
    }
  ],
  "materials": [
    {
      "pbrMetallicRoughness": {
        "baseColorTexture": {
          "index": 0
        },
        "metallicFactor": 0.0,
        "roughnessFactor": 0.5
      },
      "doubleSided": true,
      "name": "Wood Truffle",
      "extras": {
        "babylonSeparateCullingPass": false
      }
    }
  ],
  "textures": [
    {
      "sampler": 0,
      "source": 0,
      "name": "Wood023_DCL_Truffle2.jpg"
    }
  ],
  "images": [
    {
      "uri": "Textures/Wood023_DCL_Truffle2.jpg"
    }
  ],
  "samplers": [
    {
      "magFilter": 9729,
      "minFilter": 9987
    }
  ]
}