{
    "asset" : {
        "generator" : "Khronos glTF Blender I/O v3.3.27",
        "version" : "2.0"
    },
    "scene" : 0,
    "scenes" : [
        {
            "name" : "Scene",
            "nodes" : [
                0
            ]
        }
    ],
    "nodes" : [
        {
            "mesh" : 0,
            "name" : "HeathWhite/Brass",
            "scale" : [
                0.300915002822876,
                0.300915002822876,
                0.300915002822876
            ],
            "translation" : [
                -37.01503372192383,
                3.9666101932525635,
                23.7622013092041
            ]
        }
    ],
    "materials" : [
        {
            "alphaMode" : "BLEND",
            "name" : "Glass_lamp_white",
            "pbrMetallicRoughness" : {
                "baseColorFactor" : [
                    0.800000011920929,
                    0.800000011920929,
                    0.800000011920929,
                    0.800000011920929
                ],
                "metallicFactor" : 0,
                "roughnessFactor" : 0.5
            }
        },
        {
            "doubleSided" : true,
            "name" : "Lamp_gold",
            "pbrMetallicRoughness" : {
                "baseColorFactor" : [
                    1,
                    0.5747948884963989,
                    0.17550286650657654,
                    1
                ],
                "roughnessFactor" : 0.5
            }
        }
    ],
    "meshes" : [
        {
            "name" : "Cylinder.012",
            "primitives" : [
                {
                    "attributes" : {
                        "POSITION" : 0,
                        "NORMAL" : 1,
                        "TEXCOORD_0" : 2
                    },
                    "indices" : 3,
                    "material" : 0
                },
                {
                    "attributes" : {
                        "POSITION" : 4,
                        "NORMAL" : 5,
                        "TEXCOORD_0" : 6
                    },
                    "indices" : 7,
                    "material" : 1
                }
            ]
        }
    ],
    "accessors" : [
        {
            "bufferView" : 0,
            "componentType" : 5126,
            "count" : 759,
            "max" : [
                0.4569237530231476,
                -2.927973985671997,
                7.128108501434326
            ],
            "min" : [
                -0.4569363594055176,
                -4.501046657562256,
                -0.4569302499294281
            ],
            "type" : "VEC3"
        },
        {
            "bufferView" : 1,
            "componentType" : 5126,
            "count" : 759,
            "type" : "VEC3"
        },
        {
            "bufferView" : 2,
            "componentType" : 5126,
            "count" : 759,
            "type" : "VEC2"
        },
        {
            "bufferView" : 3,
            "componentType" : 5123,
            "count" : 3456,
            "type" : "SCALAR"
        },
        {
            "bufferView" : 4,
            "componentType" : 5126,
            "count" : 726,
            "max" : [
                0.31514811515808105,
                0.8638404607772827,
                6.986326694488525
            ],
            "min" : [
                -0.3151487410068512,
                -3.5322563648223877,
                -0.3151489794254303
            ],
            "type" : "VEC3"
        },
        {
            "bufferView" : 5,
            "componentType" : 5126,
            "count" : 726,
            "type" : "VEC3"
        },
        {
            "bufferView" : 6,
            "componentType" : 5126,
            "count" : 726,
            "type" : "VEC2"
        },
        {
            "bufferView" : 7,
            "componentType" : 5123,
            "count" : 3186,
            "type" : "SCALAR"
        }
    ],
    "bufferViews" : [
        {
            "buffer" : 0,
            "byteLength" : 9108,
            "byteOffset" : 0,
            "target" : 34962
        },
        {
            "buffer" : 0,
            "byteLength" : 9108,
            "byteOffset" : 9108,
            "target" : 34962
        },
        {
            "buffer" : 0,
            "byteLength" : 6072,
            "byteOffset" : 18216,
            "target" : 34962
        },
        {
            "buffer" : 0,
            "byteLength" : 6912,
            "byteOffset" : 24288,
            "target" : 34963
        },
        {
            "buffer" : 0,
            "byteLength" : 8712,
            "byteOffset" : 31200,
            "target" : 34962
        },
        {
            "buffer" : 0,
            "byteLength" : 8712,
            "byteOffset" : 39912,
            "target" : 34962
        },
        {
            "buffer" : 0,
            "byteLength" : 5808,
            "byteOffset" : 48624,
            "target" : 34962
        },
        {
            "buffer" : 0,
            "byteLength" : 6372,
            "byteOffset" : 54432,
            "target" : 34963
        }
    ],
    "buffers" : [
        {
            "byteLength" : 60804,
            "uri" : "2345_kitchen_Light_HeathWhite_Brass.bin"
        }
    ]
}
