{
    "asset" : {
        "generator" : "Khronos glTF Blender I/O v3.3.27",
        "version" : "2.0"
    },
    "scene" : 0,
    "scenes" : [
        {
            "name" : "Scene",
            "nodes" : [
                0
            ]
        }
    ],
    "nodes" : [
        {
            "mesh" : 0,
            "name" : "Dianna Satin Brass",
            "rotation" : [
                -0.7071068286895752,
                0,
                0,
                0.7071067094802856
            ],
            "scale" : [
                1.921563982963562,
                4.666512489318848,
                1.6497963666915894
            ],
            "translation" : [
                -37.01475143432617,
                4.161540985107422,
                23.7622013092041
            ]
        }
    ],
    "materials" : [
        {
            "doubleSided" : true,
            "name" : "Lamp_material_bronze",
            "pbrMetallicRoughness" : {
                "baseColorFactor" : [
                    0.5237847566604614,
                    0.44751185178756714,
                    0.31772446632385254,
                    1
                ],
                "roughnessFactor" : 0.5
            }
        },
        {
            "doubleSided" : true,
            "name" : "Lamp_white_plaqstic",
            "pbrMetallicRoughness" : {
                "baseColorFactor" : [
                    0.800000011920929,
                    0.800000011920929,
                    0.800000011920929,
                    1
                ],
                "metallicFactor" : 0
            }
        },
        {
            "alphaMode" : "BLEND",
            "doubleSided" : true,
            "name" : "Lightball",
            "pbrMetallicRoughness" : {
                "baseColorFactor" : [
                    0.4019657075405121,
                    0.4019657075405121,
                    0.4019657075405121,
                    1
                ],
                "metallicFactor" : 0,
                "roughnessFactor" : 0.5
            }
        }
    ],
    "meshes" : [
        {
            "name" : "Torus.003",
            "primitives" : [
                {
                    "attributes" : {
                        "POSITION" : 0,
                        "NORMAL" : 1,
                        "TEXCOORD_0" : 2
                    },
                    "indices" : 3,
                    "material" : 0
                },
                {
                    "attributes" : {
                        "POSITION" : 4,
                        "NORMAL" : 5,
                        "TEXCOORD_0" : 6
                    },
                    "indices" : 7,
                    "material" : 1
                },
                {
                    "attributes" : {
                        "POSITION" : 8,
                        "NORMAL" : 9,
                        "TEXCOORD_0" : 10
                    },
                    "indices" : 11,
                    "material" : 2
                }
            ]
        }
    ],
    "accessors" : [
        {
            "bufferView" : 0,
            "componentType" : 5126,
            "count" : 18758,
            "max" : [
                0.09818427264690399,
                0.039611104875802994,
                0.034412987530231476
            ],
            "min" : [
                -0.09857204556465149,
                -0.4708135724067688,
                -0.5312017202377319
            ],
            "type" : "VEC3"
        },
        {
            "bufferView" : 1,
            "componentType" : 5126,
            "count" : 18758,
            "type" : "VEC3"
        },
        {
            "bufferView" : 2,
            "componentType" : 5126,
            "count" : 18758,
            "type" : "VEC2"
        },
        {
            "bufferView" : 3,
            "componentType" : 5123,
            "count" : 60066,
            "type" : "SCALAR"
        },
        {
            "bufferView" : 4,
            "componentType" : 5126,
            "count" : 609,
            "max" : [
                0.007700975984334946,
                0.015166045166552067,
                -0.4328759014606476
            ],
            "min" : [
                -0.007869258522987366,
                -0.44565504789352417,
                -0.4845711886882782
            ],
            "type" : "VEC3"
        },
        {
            "bufferView" : 5,
            "componentType" : 5126,
            "count" : 609,
            "type" : "VEC3"
        },
        {
            "bufferView" : 6,
            "componentType" : 5126,
            "count" : 609,
            "type" : "VEC2"
        },
        {
            "bufferView" : 7,
            "componentType" : 5123,
            "count" : 1260,
            "type" : "SCALAR"
        },
        {
            "bufferView" : 8,
            "componentType" : 5126,
            "count" : 2760,
            "max" : [
                0.00770444143563509,
                0.015078535303473473,
                -0.3951874375343323
            ],
            "min" : [
                -0.007797152269631624,
                -0.4456040561199188,
                -0.4380113482475281
            ],
            "type" : "VEC3"
        },
        {
            "bufferView" : 9,
            "componentType" : 5126,
            "count" : 2760,
            "type" : "VEC3"
        },
        {
            "bufferView" : 10,
            "componentType" : 5126,
            "count" : 2760,
            "type" : "VEC2"
        },
        {
            "bufferView" : 11,
            "componentType" : 5123,
            "count" : 12960,
            "type" : "SCALAR"
        }
    ],
    "bufferViews" : [
        {
            "buffer" : 0,
            "byteLength" : 225096,
            "byteOffset" : 0,
            "target" : 34962
        },
        {
            "buffer" : 0,
            "byteLength" : 225096,
            "byteOffset" : 225096,
            "target" : 34962
        },
        {
            "buffer" : 0,
            "byteLength" : 150064,
            "byteOffset" : 450192,
            "target" : 34962
        },
        {
            "buffer" : 0,
            "byteLength" : 120132,
            "byteOffset" : 600256,
            "target" : 34963
        },
        {
            "buffer" : 0,
            "byteLength" : 7308,
            "byteOffset" : 720388,
            "target" : 34962
        },
        {
            "buffer" : 0,
            "byteLength" : 7308,
            "byteOffset" : 727696,
            "target" : 34962
        },
        {
            "buffer" : 0,
            "byteLength" : 4872,
            "byteOffset" : 735004,
            "target" : 34962
        },
        {
            "buffer" : 0,
            "byteLength" : 2520,
            "byteOffset" : 739876,
            "target" : 34963
        },
        {
            "buffer" : 0,
            "byteLength" : 33120,
            "byteOffset" : 742396,
            "target" : 34962
        },
        {
            "buffer" : 0,
            "byteLength" : 33120,
            "byteOffset" : 775516,
            "target" : 34962
        },
        {
            "buffer" : 0,
            "byteLength" : 22080,
            "byteOffset" : 808636,
            "target" : 34962
        },
        {
            "buffer" : 0,
            "byteLength" : 25920,
            "byteOffset" : 830716,
            "target" : 34963
        }
    ],
    "buffers" : [
        {
            "byteLength" : 856636,
            "uri" : "2345_kitchen_Light_DiannaSatinBrass.bin"
        }
    ]
}
