{
  "asset": {
    "version": "2.0",
    "generator": "babylon.js glTF exporter for 3dsmax 2023 v20220505.2"
  },
  "scene": 0,
  "scenes": [
    {
      "nodes": [
        0
      ]
    }
  ],
  "nodes": [
    {
      "mesh": 0,
      "translation": [
        -26.6,
        0.299999982,
        31.65
      ],
      "name": "Line23779"
    }
  ],
  "meshes": [
    {
      "primitives": [
        {
          "attributes": {
            "POSITION": 1,
            "NORMAL": 2,
            "TEXCOORD_0": 3
          },
          "indices": 0,
          "material": 0
        }
      ],
      "name": "Line23779"
    }
  ],
  "accessors": [
    {
      "bufferView": 0,
      "componentType": 5123,
      "count": 96,
      "type": "SCALAR",
      "name": "accessorIndices"
    },
    {
      "bufferView": 1,
      "componentType": 5126,
      "count": 40,
      "max": [
        2.40000081,
        0.0,
        2.249999
      ],
      "min": [
        -2.39999914,
        0.0,
        -18.65
      ],
      "type": "VEC3",
      "name": "accessorPositions"
    },
    {
      "bufferView": 1,
      "byteOffset": 480,
      "componentType": 5126,
      "count": 40,
      "type": "VEC3",
      "name": "accessorNormals"
    },
    {
      "bufferView": 2,
      "componentType": 5126,
      "count": 40,
      "type": "VEC2",
      "name": "accessorUVs"
    }
  ],
  "bufferViews": [
    {
      "buffer": 0,
      "byteLength": 192,
      "name": "bufferViewScalar"
    },
    {
      "buffer": 0,
      "byteOffset": 192,
      "byteLength": 960,
      "byteStride": 12,
      "name": "bufferViewFloatVec3"
    },
    {
      "buffer": 0,
      "byteOffset": 1152,
      "byteLength": 320,
      "byteStride": 8,
      "name": "bufferViewFloatVec2"
    }
  ],
  "buffers": [
    {
      "uri": "1860_bathroom_Floor_Glacier.bin",
      "byteLength": 1472
    }
  ],
  "materials": [
    {
      "pbrMetallicRoughness": {
        "baseColorTexture": {
          "index": 1
        },
        "metallicFactor": 0.0,
        "metallicRoughnessTexture": {
          "index": 2
        }
      },
      "normalTexture": {
        "index": 0,
        "scale": 2.0
      },
      "doubleSided": true,
      "name": "Floor-Glacier",
      "extras": {
        "babylonSeparateCullingPass": false
      }
    }
  ],
  "textures": [
    {
      "sampler": 0,
      "source": 0,
      "name": "Tiles014_1K_Normal copy.jpg"
    },
    {
      "sampler": 0,
      "source": 1,
      "name": "Tile_001.jpg"
    },
    {
      "sampler": 0,
      "source": 2,
      "name": "Tiles014_1K_Roughness0.jpg"
    }
  ],
  "images": [
    {
      "uri": "Textures/Tiles014_1K_Normal copy.jpg"
    },
    {
      "uri": "Textures/Tile_001.jpg"
    },
    {
      "uri": "Textures/Tiles014_1K_Roughness0.jpg"
    }
  ],
  "samplers": [
    {
      "magFilter": 9729,
      "minFilter": 9987
    }
  ]
}